<svg width="24" height="24" viewBox="0 0 24 24" fill="none" xmlns="http://www.w3.org/2000/svg">
    <g clip-path="url(#9pw7excm3a)" fill="#969FB4">
        <path d="m7 20-.005.102a1 1 0 0 1-1.99 0L5 20v-1.175c.313.111.649.175 1 .175a2.99 2.99 0 0 0 1-.175V20zm12 0-.005.102a1 1 0 0 1-1.99 0L17 20v-1.175c.313.111.649.175 1 .175a2.99 2.99 0 0 0 1-.175V20zM7 13.174A2.993 2.993 0 0 0 6 13c-.351 0-.687.063-1 .174v-2.349c.313.111.649.175 1 .175a2.99 2.99 0 0 0 1-.175v2.349zm12 0A2.993 2.993 0 0 0 18 13c-.351 0-.687.063-1 .174v-2.349c.313.111.649.175 1 .175a2.99 2.99 0 0 0 1-.175v2.349zM6 3a1 1 0 0 1 1 1v1.174A2.991 2.991 0 0 0 6 5c-.351 0-.687.063-1 .174V4a1 1 0 0 1 1-1zm12 0a1 1 0 0 1 1 1v1.174A2.991 2.991 0 0 0 18 5c-.351 0-.687.063-1 .174V4a1 1 0 0 1 1-1zM8.565 7.252c.03.002.067.004.112.01.089.01.207.03.347.067.282.073.652.212 1.066.476.835.531 1.8 1.535 2.6 3.4.711 1.66 1.531 2.706 2.153 3.327.311.312.575.519.753.644a3.072 3.072 0 0 0 .24.153l.002.001h-.003c.026.012.05.027.073.042l.023.016a.772.772 0 0 1 .207.223.706.706 0 0 1 .063.131l.018.058c.018.064.031.13.031.2 0 .06-.01.116-.023.172a.737.737 0 0 1-.033.11l-.01.024-.013.029c-.013.026-.029.05-.044.073l-.016.023c-.015.021-.032.04-.05.06a.754.754 0 0 1-.304.21l-.058.018c-.032.009-.064.019-.097.023l-.007.001a.758.758 0 0 1-.095.007h-7a.75.75 0 0 1 0-1.5h4.958c-.685-.76-1.47-1.871-2.148-3.454-.7-1.635-1.485-2.382-2.025-2.726a2.263 2.263 0 0 0-.638-.29 1.098 1.098 0 0 0-.167-.03H8.5l.001-.001a.75.75 0 1 1 0-1.499v.379l.001-.379h.025l.04.002z"/>
        <path d="M6 13a3 3 0 1 1 0 6 3 3 0 0 1 0-6zm12 0a3 3 0 1 1 0 6 3 3 0 0 1 0-6zM6 5a3 3 0 1 1 0 6 3 3 0 0 1 0-6zm12 0a3 3 0 1 1 0 6 3 3 0 0 1 0-6z"/>
    </g>
    <defs>
        <clipPath id="9pw7excm3a">
            <path fill="#fff" d="M0 0h24v24H0z"/>
        </clipPath>
    </defs>
</svg>
