<svg width="40" height="40" viewBox="0 0 40 40" fill="none" xmlns="http://www.w3.org/2000/svg">
    <g clip-path="url(#fo6sneub8a)">
        <rect width="40" height="40" rx="20" fill="#EEF2FD"/>
        <path d="M19.14 9.457a1 1 0 0 1 1.72 0L32.109 28.49a1 1 0 0 1-.86 1.509H8.752a1 1 0 0 1-.86-1.509L19.139 9.457z" fill="#D7DCEA"/>
        <path d="M21 17.26a1.26 1.26 0 1 1-2.52 0 1.26 1.26 0 0 1 2.52 0zm-.42 8.4a.84.84 0 0 1-1.68 0v-5.04a.84.84 0 1 1 1.68 0v5.04z" fill="#969FB4"/>
    </g>
    <defs>
        <clipPath id="fo6sneub8a">
            <path fill="#fff" d="M0 0h40v40H0z"/>
        </clipPath>
    </defs>
</svg>
