<svg width="16" height="16" viewBox="0 0 16 16" fill="none" xmlns="http://www.w3.org/2000/svg">
    <path d="M6.638 7.977c.34-.34.98-.276 1.43.144.45.42.54 1.036.2 1.377L3.254 14.51l-1.63-1.52.616-.616 4.397-4.397zM3.12 14.485H1.706V13.07l1.414 1.415zM4.812 1.507a.2.2 0 0 1 .376 0l.59 1.596a.2.2 0 0 0 .119.119l1.596.59a.2.2 0 0 1 0 .376l-1.596.59a.2.2 0 0 0-.119.119l-.59 1.596a.2.2 0 0 1-.376 0l-.59-1.596a.2.2 0 0 0-.119-.119l-1.596-.59a.2.2 0 0 1 0-.376l1.596-.59a.2.2 0 0 0 .119-.119l.59-1.596zM11.812 7.507a.2.2 0 0 1 .376 0l.59 1.596a.2.2 0 0 0 .118.119l1.597.59a.2.2 0 0 1 0 .376l-1.597.59a.2.2 0 0 0-.118.118l-.59 1.597a.2.2 0 0 1-.376 0l-.59-1.597a.2.2 0 0 0-.118-.118l-1.597-.59a.2.2 0 0 1 0-.376l1.597-.59a.2.2 0 0 0 .118-.119l.59-1.596zM10.812 3.507a.2.2 0 0 1 .376 0l.32.867a.2.2 0 0 0 .118.118l.867.32a.2.2 0 0 1 0 .376l-.867.32a.2.2 0 0 0-.118.118l-.32.867a.2.2 0 0 1-.376 0l-.32-.867a.2.2 0 0 0-.118-.118l-.867-.32a.2.2 0 0 1 0-.376l.867-.32a.2.2 0 0 0 .118-.118l.32-.867z" fill="#fff"/>
</svg>
