<svg width="16" height="16" viewBox="0 0 16 16" fill="none" xmlns="http://www.w3.org/2000/svg">
    <path d="M7.583 2.73a.493.493 0 0 1 .834 0l1.661 2.738a.482.482 0 0 0 .315.22l3.226.67a.458.458 0 0 1 .258.762l-2.2 2.362a.452.452 0 0 0-.12.355l.333 3.152c.037.354-.337.614-.675.471l-3.02-1.278a.501.501 0 0 0-.39 0l-3.02 1.278c-.338.143-.712-.117-.675-.47l.333-3.153a.452.452 0 0 0-.12-.355l-2.2-2.362a.458.458 0 0 1 .258-.762l3.226-.67a.482.482 0 0 0 .315-.22l1.66-2.738z" stroke="#fff" stroke-width="1.5"/>
</svg>
