<svg width="40" height="40" viewBox="0 0 40 40" fill="none" xmlns="http://www.w3.org/2000/svg">
    <path d="M31 3a2 2 0 0 1 2 2v30.874a2 2 0 0 1-2.838 1.816l-9.324-4.303a2 2 0 0 0-1.676 0L9.838 37.69A2 2 0 0 1 7 35.874V5a2 2 0 0 1 2-2h22zm-10.718 8.152a.337.337 0 0 0-.564 0l-2.206 3.456a.333.333 0 0 1-.202.144l-4.057.975a.321.321 0 0 0-.175.523l2.694 3.112a.318.318 0 0 1 .077.232l-.301 4.058c-.018.24.228.414.456.324l3.871-1.534a.34.34 0 0 1 .25 0l3.871 1.534c.228.09.474-.085.456-.324l-.3-4.058a.318.318 0 0 1 .076-.232l2.694-3.112a.321.321 0 0 0-.175-.523l-4.057-.975a.333.333 0 0 1-.202-.144l-2.206-3.456z" fill="#969FB4"/>
</svg>
