<svg width="24" height="24" viewBox="0 0 24 24" fill="none" xmlns="http://www.w3.org/2000/svg">
    <circle cx="11" cy="13" r="9" stroke="#D7DCEA" stroke-width="2"/>
    <path d="M11 4c.189 0 .47.091.83.473.363.383.736.993 1.07 1.828C13.566 7.965 14 10.334 14 13c0 2.666-.434 5.035-1.1 6.7-.334.834-.707 1.444-1.07 1.827-.36.381-.641.473-.83.473-.189 0-.47-.091-.83-.473-.363-.383-.736-.993-1.07-1.828C8.434 18.035 8 15.666 8 13c0-2.666.434-5.035 1.1-6.7.334-.834.707-1.444 1.07-1.827C10.53 4.09 10.81 4 11 4z" stroke="#D7DCEA" stroke-width="2"/>
    <path fill="#D7DCEA" d="M2 12h18v2H2z"/>
    <path d="M17 2.25A4.75 4.75 0 0 1 21.75 7c0 .74-.308 1.524-.686 2.225-.387.719-.896 1.439-1.399 2.07a20.737 20.737 0 0 1-1.418 1.605c-.2.203-.38.373-.521.498-.07.06-.142.12-.208.167a.906.906 0 0 1-.247.136.784.784 0 0 1-.66-.053 1.231 1.231 0 0 1-.129-.083 2.99 2.99 0 0 1-.208-.167 10.153 10.153 0 0 1-.521-.498c-.402-.407-.913-.97-1.418-1.604-.503-.632-1.012-1.352-1.4-2.071-.377-.701-.685-1.485-.685-2.225A4.75 4.75 0 0 1 17 2.25z" fill="url(#ap9onxynia)" stroke="#fff" stroke-width="1.5"/>
    <circle cx="17" cy="7" r="1" fill="#fff"/>
    <defs>
        <linearGradient id="ap9onxynia" x1="17" y1="3" x2="17" y2="14" gradientUnits="userSpaceOnUse">
            <stop stop-color="#7A99F2"/>
            <stop offset="1" stop-color="#4B75EE"/>
        </linearGradient>
    </defs>
</svg>
