<svg width="24" height="24" viewBox="0 0 24 24" fill="none" xmlns="http://www.w3.org/2000/svg">
    <rect x="3" y="2" width="16" height="20" rx="1" fill="#D7DCEA"/>
    <path d="M6 6h10M6 10h4" stroke="#fff" stroke-width="1.5" stroke-linecap="round"/>
    <mask id="f8wnj96c1a" maskUnits="userSpaceOnUse" x="8.918" y="8.92" width="14" height="15" fill="#000">
        <path fill="#fff" d="M8.918 8.92h14v15h-14z"/>
        <path d="M12.275 12.276a4.632 4.632 0 0 1 6.55 0l.165.173a4.63 4.63 0 0 1 .19 5.973l1.875 1.99.05.058a.75.75 0 0 1-1.142.97l-1.89-2.006a4.632 4.632 0 0 1-5.798-.608l-.165-.174a4.632 4.632 0 0 1 0-6.203l.165-.173zm5.135 1.414a2.632 2.632 0 1 0-3.721 3.723 2.632 2.632 0 0 0 3.721-3.723z"/>
    </mask>
    <path d="M12.275 12.276a4.632 4.632 0 0 1 6.55 0l.165.173a4.63 4.63 0 0 1 .19 5.973l1.875 1.99.05.058a.75.75 0 0 1-1.142.97l-1.89-2.006a4.632 4.632 0 0 1-5.798-.608l-.165-.174a4.632 4.632 0 0 1 0-6.203l.165-.173zm5.135 1.414a2.632 2.632 0 1 0-3.721 3.723 2.632 2.632 0 0 0 3.721-3.723z" fill="#4B75EE"/>
    <path d="m12.275 12.276-1.061-1.06-.012.012-.012.013 1.085 1.035zm6.55 0 1.084-1.035-.012-.013-.012-.012-1.06 1.06zm.165.173 1.113-1.005-.014-.016-.015-.015-1.085 1.036zm.19 5.973-1.175-.932-.805 1.017.89.943 1.09-1.028zm1.875 1.99 1.143-.972-.025-.03-.026-.027-1.092 1.028zm.05.058 1.19-.914-.023-.03-.024-.028-1.143.972zm-.08 1.002 1.028 1.091h.001l-1.03-1.091zm-1.062-.033 1.092-1.028-1.092 1.028zm-1.89-2.005 1.091-1.03-.86-.911-1.05.684.819 1.257zm-5.798-.608-1.088 1.033.013.014.014.014 1.06-1.06zm-.165-.174-1.114 1.006.013.014.013.013 1.088-1.033zm0-6.203-1.085-1.036-.015.015-.014.016 1.114 1.005zm5.3 1.241 1.061-1.06-1.06 1.06zm-3.721 0-1.06-1.06h-.001l1.06 1.06zm0 3.722-1.061 1.06 1.06-1.06zm3.72 0 1.06 1.061h.001l-1.06-1.06zm-5.134-5.136 1.06 1.061a3.132 3.132 0 0 1 4.429 0l1.06-1.06 1.061-1.061a6.132 6.132 0 0 0-8.671 0l1.06 1.06zm6.55 0-1.085 1.036.165.173 1.084-1.036 1.085-1.036-.165-.172-1.084 1.035zm.165.173-1.114 1.006a3.13 3.13 0 0 1 .13 4.035l1.175.932 1.175.931a6.13 6.13 0 0 0-.253-7.91l-1.114 1.006zm.19 5.973-1.09 1.028 1.873 1.99 1.092-1.029 1.092-1.029-1.874-1.989-1.092 1.029zm1.875 1.99-1.143.97.05.06 1.143-.972 1.143-.972-.05-.058-1.143.971zm.05.058-1.19.913a.75.75 0 0 1 .08-1.002l1.03 1.09 1.03 1.091a2.25 2.25 0 0 0 .24-3.006l-1.19.914zm-.08 1.002-1.03-1.092a.748.748 0 0 1 1.06.03l-1.092 1.03-1.091 1.028c.85.903 2.275.95 3.181.095l-1.028-1.091zm-1.062-.033 1.092-1.028-1.89-2.006-1.092 1.029-1.092 1.028 1.89 2.006 1.092-1.029zm-1.89-2.005-.819-1.257a3.132 3.132 0 0 1-3.919-.412l-1.06 1.061-1.06 1.06a6.132 6.132 0 0 0 7.676.805l-.818-1.257zm-5.798-.608 1.088-1.033-.166-.174-1.087 1.033-1.088 1.033.165.174 1.088-1.033zm-.165-.174 1.113-1.005a3.132 3.132 0 0 1 0-4.192l-1.113-1.006-1.114-1.005a6.132 6.132 0 0 0 0 8.214l1.114-1.006zm0-6.203 1.085 1.036.165-.173-1.085-1.036-1.085-1.035-.165.172 1.085 1.036zm5.3 1.241 1.061-1.06a4.132 4.132 0 0 0-5.843 0l1.06 1.06 1.061 1.061a1.132 1.132 0 0 1 1.6 0l1.061-1.06zm-3.721 0-1.061-1.06a4.132 4.132 0 0 0 0 5.843l1.06-1.06 1.061-1.061a1.132 1.132 0 0 1 0-1.601l-1.06-1.06zm0 3.722-1.06 1.06a4.132 4.132 0 0 0 5.84.001l-1.06-1.06-1.06-1.062a1.132 1.132 0 0 1-1.6 0l-1.06 1.061zm3.72 0 1.061 1.06a4.132 4.132 0 0 0 .001-5.842l-1.06 1.06-1.061 1.06a1.132 1.132 0 0 1-.001 1.601l1.06 1.061z" fill="#fff" mask="url(#f8wnj96c1a)"/>
</svg>
