<svg width="52" height="52" viewBox="0 0 52 52" fill="none" xmlns="http://www.w3.org/2000/svg">
    <g clip-path="url(#rttlf8u84a)" stroke="#fff" stroke-width="2">
        <path d="m18.967 46.371-8.469.075-6.041-5.937-.074-8.47L10.319 26l8.47-.074 6.04 5.937.074 8.468-5.936 6.041zM41.701 46.371l-8.469.075-6.04-5.937-.075-8.47L33.054 26l8.47-.074 6.04 5.937.074 8.468-5.937 6.041z"/>
        <path d="m16.274 40.024-3.19.026-2.276-2.235-.027-3.19 2.236-2.276 3.19-.028 2.276 2.237.027 3.19-2.236 2.276zM30.213 25.758l-8.469.074-6.041-5.936-.074-8.47 5.936-6.04 8.47-.074 6.04 5.936.074 8.469-5.936 6.041z"/>
        <path d="m27.517 19.41-3.191.027-2.276-2.235-.027-3.19 2.236-2.276 3.19-.028 2.276 2.236.027 3.191-2.235 2.275zM39.009 40.024l-3.19.026-2.277-2.235-.026-3.19 2.235-2.276 3.19-.028 2.276 2.237.028 3.19-2.236 2.276z"/>
    </g>
    <defs>
        <clipPath id="rttlf8u84a">
            <path fill="#fff" d="M0 0h52v52H0z"/>
        </clipPath>
    </defs>
</svg>
