<svg width="52" height="52" viewBox="0 0 52 52" fill="none" xmlns="http://www.w3.org/2000/svg">
    <path fill="#fff" d="M12 11h15v2H12zM12 16h15v2H12z"/>
    <path d="M31.204 4.01A2 2 0 0 1 33 6v13.861c-.6.326-1.276.674-2 1.018V6H8v31h16.154c.254.651.555 1.322.91 2H8a2 2 0 0 1-1.99-1.796L6 37V6a2 2 0 0 1 2-2h23l.204.01z" fill="#fff"/>
    <path d="m34.5 19 .524-.852-.524-.322-.524.322.524.852zM46 23.246h1v-1h-1v1zm-11.5 24.77-.442.897.442.217.442-.217-.442-.897zM23 23.246v-1h-1v1h1zM34.5 19l-.524.852a40.805 40.805 0 0 0 5.373 2.725c2.154.896 4.605 1.67 6.651 1.67v-2c-1.634 0-3.782-.643-5.884-1.517a38.815 38.815 0 0 1-5.092-2.582L34.5 19zM46 23.246h-1v8.316h2v-8.316h-1zm0 8.316h-1c0 3.295-2.15 11.228-10.942 15.556l.442.898.442.897C44.549 44.183 47 35.46 47 31.562h-1zM34.5 48.016l.442-.898C26.149 42.79 24 34.858 24 31.561h-2c0 3.9 2.45 12.622 12.058 17.352l.442-.897zM23 31.562h1v-8.316h-2v8.316h1zm0-8.316v1c2.046 0 4.497-.773 6.651-1.669a40.805 40.805 0 0 0 5.373-2.725L34.5 19l-.524-.852a38.815 38.815 0 0 1-5.092 2.582c-2.102.874-4.25 1.516-5.884 1.516v1z" fill="#fff"/>
    <path d="M30 34.176 32.88 37 39 31" stroke="#fff" stroke-width="2" stroke-linecap="round"/>
</svg>
