<svg width="52" height="52" viewBox="0 0 52 52" fill="none" xmlns="http://www.w3.org/2000/svg">
    <circle cx="26" cy="12" r="3" stroke="#fff" stroke-width="2"/>
    <circle cx="26" cy="22" r="3" stroke="#fff" stroke-width="2"/>
    <circle cx="26" cy="32" r="3" stroke="#fff" stroke-width="2"/>
    <path d="M17 5h18a1 1 0 0 1 1 1v32a1 1 0 0 1-1 1H17a1 1 0 0 1-1-1V6a1 1 0 0 1 1-1zM29 49V39h-5v10M14.6 14H16V9h-5.6a.4.4 0 0 0-.4.4 4.6 4.6 0 0 0 4.6 4.6zM37.4 14H36V9h5.6c.22 0 .4.18.4.4a4.6 4.6 0 0 1-4.6 4.6zM14.6 24H16v-5h-5.6a.4.4 0 0 0-.4.4 4.6 4.6 0 0 0 4.6 4.6zM37.4 24H36v-5h5.6c.22 0 .4.18.4.4a4.6 4.6 0 0 1-4.6 4.6zM14.6 34H16v-5h-5.6a.4.4 0 0 0-.4.4 4.6 4.6 0 0 0 4.6 4.6zM37.4 34H36v-5h5.6c.22 0 .4.18.4.4a4.6 4.6 0 0 1-4.6 4.6z" stroke="#fff" stroke-width="2"/>
</svg>
