<svg width="52" height="52" viewBox="0 0 52 52" fill="none" xmlns="http://www.w3.org/2000/svg">
    <mask id="ccy71bzfha" maskUnits="userSpaceOnUse" x=".219" y="10" width="51" height="34" fill="#000">
        <path fill="#fff" d="M.219 10h51v34h-51z"/>
        <path d="M20.492 12a1 1 0 0 1 .957 1.29l-.675 2.226h11.8L31.9 13.29a1 1 0 0 1 .957-1.29h.608c.41 0 .78.252.93.634l1.136 2.882h2.402a1 1 0 0 1 .886.537l1.096 2.1h-3.346l1.385 3.515h3.795l2.293 4.395h-4.356l1.73 4.394H46.334l1.988 3.809a1 1 0 0 1-.886 1.462h-3.943l1.54 3.907A1 1 0 0 1 44.1 41h-3.063a1 1 0 0 1-.957-.71l-1.383-4.563H14.65l-1.383 4.563a1 1 0 0 1-.957.71H9.248a1 1 0 0 1-.93-1.366l1.538-3.907H4.221a1 1 0 0 1-.871-1.492l2.23-3.947c.159.106.35.168.555.168h5.797l1.732-4.395H7.97l2.483-4.394h4.942l1.385-3.516h-4.34l1.204-2.129a1 1 0 0 1 .87-.507h3.304l1.136-2.882a1 1 0 0 1 .93-.634h.608zM17.58 26.063l-1.332 4.394h20.855l-1.332-4.395H17.579zm2.396-7.91-1.065 3.515h15.528l-1.065-3.516H19.976z"/>
    </mask>
    <path d="m21.45 13.29 1.913.58-1.914-.58zm-.676 2.226-1.914-.58a2 2 0 0 0 1.914 2.58v-2zm11.8 0v2a2 2 0 0 0 1.914-2.58l-1.914.58zM31.9 13.29l-1.914.58 1.914-.58zM33.464 12v-2 2zm.93.634-1.86.733 1.86-.733zm1.136 2.882-1.86.733a2 2 0 0 0 1.86 1.267v-2zm3.288.537 1.773-.926-1.773.926zm1.096 2.1v2a2 2 0 0 0 1.773-2.926l-1.773.925zm-3.346 0v-2a2 2 0 0 0-1.86 2.732l1.86-.733zm1.385 3.515-1.86.733a2 2 0 0 0 1.86 1.267v-2zm3.795 0 1.773-.925a2 2 0 0 0-1.773-1.075v2zm2.293 4.395v2a2 2 0 0 0 1.773-2.926l-1.773.925zm-4.356 0v-2a2 2 0 0 0-1.861 2.733l1.86-.733zm1.73 4.394-1.86.733a2 2 0 0 0 1.86 1.267v-2zm4.903 0v2h.002l-.002-2zm.015 0 1.773-.926a2 2 0 0 0-1.804-1.075l.03 2zm1.988 3.809 1.773-.925-1.773.925zm-.886 1.462v2-2zm-3.943 0v-2a2 2 0 0 0-1.86 2.734l1.86-.734zm1.54 3.907 1.86-.733-1.86.733zM44.1 41v2-2zm-3.063 0v2-2zm-.957-.71 1.914-.58-1.914.58zm-1.383-4.563 1.914-.58a2 2 0 0 0-1.914-1.42v2zm-24.048 0v-2a2 2 0 0 0-1.914 1.42l1.914.58zm-1.383 4.563-1.913-.58 1.914.58zm-.957.71v2h.001v-2zm-3.993-1.366-1.86-.733 1.86.733zm1.54-3.907 1.86.734a2 2 0 0 0-1.86-2.734v2zm-5.636 0v2-2zm-.871-1.492 1.74.984-1.74-.984zm2.23-3.947 1.11-1.663a2 2 0 0 0-2.851.68l1.741.983zm.555.168v2-2zm5.797 0v2a2 2 0 0 0 1.861-1.267l-1.86-.733zm1.732-4.395 1.86.734a2 2 0 0 0-1.86-2.733v2zm-5.694 0-1.742-.984a2 2 0 0 0 1.742 2.985v-2zm2.483-4.394v-2a2 2 0 0 0-1.741 1.016l1.741.984zm4.942 0v2a2 2 0 0 0 1.861-1.267l-1.86-.733zm1.385-3.516 1.861.733a2 2 0 0 0-1.86-2.733v2zm-4.34 0-1.74-.984a2 2 0 0 0 1.74 2.984v-2zm1.204-2.129-1.742-.984 1.742.984zm.87-.507v-2 2zm3.304 0v2a2 2 0 0 0 1.861-1.267l-1.86-.733zm1.136-2.882 1.86.733-1.86-.733zm-1.375 13.428v-2a2 2 0 0 0-1.914 1.42l1.914.58zm-1.332 4.395-1.914-.58a2 2 0 0 0 1.914 2.58v-2zm20.855 0v2a2 2 0 0 0 1.914-2.58l-1.914.58zm-1.332-4.395 1.913-.58a2 2 0 0 0-1.913-1.42v2zm-15.795-7.91v-2a2 2 0 0 0-1.914 1.42l1.915.58zm-1.065 3.516-1.914-.58a2 2 0 0 0 1.914 2.58v-2zm15.528 0v2a2 2 0 0 0 1.914-2.58l-1.914.58zm-1.065-3.516 1.914-.58a2 2 0 0 0-1.914-1.42v2zM20.493 12v2a1 1 0 0 1-.958-1.29l1.914.58 1.914.58a3 3 0 0 0-2.87-3.87v2zm.956 1.29-1.914-.58-.675 2.225 1.914.58 1.914.58.675-2.225-1.914-.58zm-.675 2.226v2h11.8v-4h-11.8v2zm11.8 0 1.914-.58-.675-2.226-1.914.58-1.914.58.675 2.226 1.914-.58zM31.9 13.29l1.914-.58a1 1 0 0 1-.957 1.29v-4a3 3 0 0 0-2.87 3.87l1.913-.58zm.957-1.29v2h.608v-4h-.608v2zm.608 0v2a1 1 0 0 1-.93-.633l1.86-.733 1.861-.733A3.001 3.001 0 0 0 33.465 10l-.001 2zm.93.634-1.86.733 1.136 2.882 1.86-.733 1.86-.734-1.135-2.882-1.86.734zm1.136 2.882v2h2.402v-4H35.53v2zm2.402 0v2a1 1 0 0 1-.887-.538l1.773-.925 1.773-.926a3 3 0 0 0-2.66-1.611v2zm.886.537-1.773.925 1.096 2.1 1.773-.926 1.773-.925-1.096-2.1-1.773.926zm1.096 2.1v-2h-3.346v4h3.346v-2zm-3.346 0-1.86.732 1.384 3.516 1.861-.733 1.86-.733-1.384-3.516-1.86.733zm1.385 3.515v2h3.795v-4h-3.795v2zm3.795 0-1.773.925 2.293 4.395 1.773-.925 1.773-.926-2.293-4.394-1.773.925zm2.293 4.395v-2h-4.356v4h4.356v-2zm-4.356 0-1.861.733 1.731 4.394 1.86-.733 1.862-.733-1.732-4.395-1.86.733zm1.73 4.394v2h4.903v-4h-4.902v2zm4.903 0 .002 2a2.046 2.046 0 0 0 .18-.008c.009 0 .015-.002.017-.002h-.006l-.027.003a1.888 1.888 0 0 1-.12.006l-.031-2-.031-2a1.966 1.966 0 0 0-.166.01h-.001.003l.01-.002.034-.002a2.116 2.116 0 0 1 .135-.005l.001 2zm.015 0-1.773.924 1.988 3.81 1.773-.925 1.773-.926-1.988-3.81-1.773.926zm1.988 3.809-1.773.925a1 1 0 0 1 .886-1.463v4c2.253 0 3.702-2.39 2.66-4.387l-1.773.925zm-.886 1.462v-2h-3.943v4h3.943v-2zm-3.943 0-1.86.734 1.538 3.906 1.861-.733 1.861-.733-1.54-3.907-1.86.733zm1.54 3.907-1.862.732a1 1 0 0 1 .93-1.366v4c2.115 0 3.567-2.13 2.792-4.099l-1.86.733zM44.1 41v-2h-3.063v4h3.063v-2zm-3.063 0v-2a1 1 0 0 1 .957.71l-1.914.58-1.914.58a3 3 0 0 0 2.87 2.13l.001-2zm-.957-.71 1.914-.58-1.383-4.563-1.914.58-1.914.58 1.383 4.563 1.914-.58zm-1.383-4.563v-2H14.65v4h24.048v-2zm-24.048 0-1.914-.58-1.383 4.563 1.915.58 1.913.58 1.383-4.562-1.914-.58zm-1.383 4.563-1.913-.58a1 1 0 0 1 .956-.71v2l.001 2a3 3 0 0 0 2.87-2.13l-1.913-.58zm-.957.71v-2H9.248v4h3.063v-2zm-3.062 0v-2a1 1 0 0 1 .93 1.367l-1.86-.733-1.862-.733C5.681 40.872 7.133 43 9.248 43v-2zm-.93-1.366 1.86.733 1.54-3.906-1.862-.734-1.86-.733-1.54 3.907 1.861.733zm1.538-3.907v-2H4.221v4h5.635v-2zm-5.635 0v-2a1 1 0 0 1 .87 1.492l-1.741-.984-1.742-.984c-1.13 2.001.317 4.476 2.613 4.476v-2zm-.871-1.492 1.74.984 2.231-3.947-1.741-.984-1.741-.984-2.23 3.947 1.74.984zm2.23-3.947-1.11 1.663a2.996 2.996 0 0 0 1.665.505v-4c.204 0 .397.063.555.169l-1.11 1.663zm.555.168v2h5.797v-4H6.135v2zm5.797 0 1.861.733 1.732-4.394-1.861-.733-1.86-.734-1.732 4.395 1.86.733zm1.732-4.395v-2H7.97v4h5.694v-2zm-5.694 0 1.74.985 2.484-4.395-1.741-.984-1.741-.984-2.484 4.394 1.742.985zm2.483-4.394v2h4.942v-4h-4.942v2zm4.942 0 1.861.733 1.385-3.516-1.86-.733-1.862-.733-1.384 3.516 1.86.733zm1.385-3.516v-2h-4.34v4h4.34v-2zm-4.34 0 1.742.984 1.203-2.129-1.742-.984-1.74-.984-1.204 2.13 1.741.983zm1.204-2.129 1.74.985a1 1 0 0 1-.87.508v-4a3 3 0 0 0-2.612 1.523l1.742.984zm.87-.507v2h3.304v-4h-3.303v2zm3.304 0 1.861.733 1.136-2.882-1.861-.733-1.86-.734-1.136 2.882 1.86.734zm1.136-2.882 1.86.733a1 1 0 0 1-.93.633v-4a3 3 0 0 0-2.79 1.9l1.86.734zm.93-.634v2h.608v-4h-.607v2zM17.58 26.063l-1.914-.58-1.332 4.394 1.914.58 1.914.58 1.332-4.394-1.914-.58zm-1.332 4.394v2h20.855v-4H16.247v2zm20.855 0 1.914-.58-1.332-4.395-1.914.58-1.915.58 1.333 4.395 1.913-.58zm-1.332-4.395v-2H17.579v4h18.19v-2zm-15.795-7.91-1.914-.58-1.065 3.516 1.914.58 1.914.58 1.066-3.516-1.915-.58zm-1.065 3.516v2h15.528v-4H18.91v2zm15.528 0 1.914-.58-1.065-3.516-1.914.58-1.914.58 1.065 3.516 1.914-.58zm-1.065-3.516v-2H19.976v4h13.397v-2z" fill="#fff" mask="url(#ccy71bzfha)"/>
</svg>
