<svg width="546" height="556" viewBox="0 0 546 556" fill="none" xmlns="http://www.w3.org/2000/svg">
    <g clip-path="url(#hxen4g3npa)">
        <path d="M160.422 23.94a272 272 0 0 1 270.616 27.399 271.99 271.99 0 0 1 87.486 105.731l3.121-9.494a2 2 0 1 1 3.799 1.248l-5.259 16.007-16.007-5.26a1.999 1.999 0 1 1 1.248-3.8l9.542 3.136A268.001 268.001 0 0 0 298.998 5.363 268 268 0 0 0 54.585 115.302l-1.622-1.17-1.623-1.169a272 272 0 0 1 109.082-89.024z" fill="#7A99F2"/>
        <path d="M113.293 494.651a271.992 271.992 0 0 1-111.58-248.06A271.997 271.997 0 0 1 49.536 117.96l-9.782 2.045a2 2 0 0 1-.82-3.915l16.493-3.448 3.448 16.492a1.999 1.999 0 1 1-3.914.819l-2.056-9.831a267.998 267.998 0 0 0-24.988 263.807 268.002 268.002 0 0 0 217.416 156.699l-.202 1.989-.201 1.99a271.991 271.991 0 0 1-131.637-49.956z" fill="#D7E0FB"/>
        <path d="M543.464 300.112a273.089 273.089 0 0 1-50.103 131.891 272.904 272.904 0 0 1-109.22 89.264 272.124 272.124 0 0 1-135.401 23.059l6.662 7.459a2 2 0 0 1-.162 2.824 2 2 0 0 1-2.824-.158l-9.895-11.076-1.329-1.487 1.489-1.334 11.083-9.926a2.001 2.001 0 0 1 2.825.153 2 2 0 0 1-.158 2.824l-7.506 6.722a268.125 268.125 0 0 0 133.571-22.707 268.913 268.913 0 0 0 107.62-87.955 269.094 269.094 0 0 0 49.368-129.959 268.464 268.464 0 0 0-22.111-137.135l1.825-.818 1.825-.819a272.46 272.46 0 0 1 22.441 139.178z" fill="#A8BCF7"/>
        <path d="M173.179 18.587a272.002 272.002 0 0 1 261.578 35.48 271.994 271.994 0 0 1 83.767 103.003l3.121-9.493a2 2 0 1 1 3.799 1.248l-5.259 16.006-16.007-5.259a2 2 0 1 1 1.248-3.8l9.542 3.136A267.999 267.999 0 0 0 174.632 22.314a268.006 268.006 0 0 0-108.928 78.614l-1.539-1.276-1.54-1.277a272.005 272.005 0 0 1 110.554-79.788z" fill="#7A99F2"/>
        <path d="m229.5 237.811.235.395c7.631-4.217 27.614-11.715 41.965-8.712 4.236.884 6.458 3.595 6.438 6.118-.03 4.428-4.156 7.627-9.96 8.936 0 0 11.157 4.428 15.203 17.452h8.119c-2.127-7.114-6.195-13.25-12.904-17.376 3.137-1.006 8.761-4.451 8.761-9.68 0-4.546-5.091-8.325-14.382-8.873-15.288-.905-35.917 7.051-43.475 11.74z" fill="#F5A500"/>
        <path d="m237.5 230.684.198.297c17.238-8.183 32.509-10.27 42.77-9.638 9.86.604 15.801 5.08 15.801 11.244 0 6.165-5.884 10.159-11.603 11.315 5.894 3.272 11.465 9.268 13.831 18.098h8.003c-1.976-6.61-5.65-13.608-12.312-18.073 6.845-1.903 10.544-6.937 10.544-12.46 0-6.804-5.571-12.49-17.52-13.356-12.197-.883-33.135 3.519-49.712 12.573z" fill="#9DC814"/>
        <path d="m271.5 262-13.639-13.859L270.642 235h-8.661l-9.592 9.904V235H245.5v27h6.889v-10.634L262.53 262h8.97zM317.5 235h-7v27h7v-27z" fill="#004EA2"/>
        <path d="M146.696 281.117c0 2.18 2.109 4.149 5.32 4.852l-1.007 1.711c-2.497-.586-4.395-1.922-5.368-3.703-.949 1.945-2.859 3.433-5.437 4.101l-.984-1.734c3.21-.821 5.273-2.883 5.273-5.227v-.351h-4.57v-1.782h4.57v-2.086h2.227v2.086h4.546v1.782h-4.57v.351zm10.125-4.125v10.992h-2.203v-4.078h-3.961v-1.781h3.961v-5.133h2.203zm0 11.906v5.18H145.36v1.969h12.211v1.734h-14.437v-5.343h11.484v-1.805h-11.531v-1.735h13.734zm19.914-2.226v1.781h-6.352v5.133h8.555v1.828h-19.219v-1.828h8.461v-5.133h-6.07v-9.844h14.437v1.805h-12.211v6.258h12.399zm26.326-9.68v21h-2.25v-21h2.25zm-6.257 2.25c0 6.141-2.625 11.485-9.821 14.93l-1.172-1.805c5.59-2.66 8.309-6.445 8.743-11.344h-7.735v-1.781h9.985zm19.89-1.453c0 2.414 3.328 4.43 7.429 4.899l-.773 1.687c-3.445-.41-6.457-1.863-7.805-4.008-1.359 2.145-4.371 3.598-7.781 4.008l-.774-1.687c4.102-.469 7.43-2.485 7.43-4.899v-.703h2.274v.703zm8.437 7.805v1.781h-8.484v1.875h6.07v4.969h-12.234v1.851h12.82v1.711h-15v-5.179h12.211v-1.641H208.28v-1.711h6.14v-1.875h-8.437v-1.781h19.148zm18.695-8.602v21h-2.25v-21h2.25zm-6.258 2.25c0 6.141-2.625 11.485-9.82 14.93l-1.172-1.805c5.59-2.66 8.308-6.445 8.742-11.344h-7.734v-1.781h9.984zM264.185 278v1.781h-6.399c.129 2.285 3.152 4.301 7.055 4.781l-.844 1.758c-3.598-.468-6.551-2.144-7.687-4.5-1.137 2.344-4.079 4.032-7.665 4.5l-.843-1.758c3.925-.48 6.914-2.496 7.031-4.781h-6.328V278h15.68zm1.757 9.68v1.804h-8.343v4.078h-2.204v-4.078h-8.671v-1.804h19.218zm-2.132 8.062v1.805h-14.696v-6h2.227v4.195h12.469zm5.71-5.508c-.914 0-1.688-.75-1.664-1.664-.024-.914.75-1.664 1.664-1.664.89 0 1.664.75 1.664 1.664 0 .914-.774 1.664-1.664 1.664zm22.796 3.446v1.828h-19.219v-1.828h5.157v-4.664h-3.469v-1.805h3.14v-6.539h-3.187v-1.828h15.82v1.828h-3.211v6.539h3.141v1.805h-3.445v4.664h5.273zm-12.187-6.469h5.039v-6.539h-5.039v6.539zm.351 6.469h4.336v-4.664h-4.336v4.664zM310.917 278v1.781h-6.398c.128 2.285 3.152 4.301 7.054 4.781l-.843 1.758c-3.598-.468-6.551-2.144-7.688-4.5-1.137 2.344-4.078 4.032-7.664 4.5l-.844-1.758c3.926-.48 6.914-2.496 7.031-4.781h-6.328V278h15.68zm1.758 9.68v1.804h-8.344v4.078h-2.203v-4.078h-8.672v-1.804h19.219zm-2.133 8.062v1.805h-14.695v-6h2.226v4.195h12.469zm26.796-18.75v21h-2.133v-10.898h-2.602v9.89h-2.086v-19.429h2.086v7.734h2.602v-8.297h2.133zm-8.907 2.672c-.023 5.531-1.851 10.477-7.851 13.875l-1.289-1.547c4.664-2.637 6.633-6.211 6.984-10.5h-6.094v-1.828h8.25zm14.312-1.781v2.859h5.508v-2.859h2.203v9.164h-9.89v-9.164h2.179zm0 7.383h5.508v-2.813h-5.508v2.813zm13.5-8.274v4.406h3.047v1.805h-3.047v4.594h-2.226v-10.805h2.226zm0 11.719v5.297H344.9V296h12.07v1.781h-14.25v-5.414h11.32v-1.898h-11.367v-1.758h13.57zm11.101-10.477-5.461 20.321h-2.226l5.461-20.321h2.226zm12.437.352v1.172c-.023 1.406-.023 3.492-.539 6.211l-2.203-.211c.457-2.332.527-4.02.562-5.344h-8.414v-1.828h10.594zm-5.367 4.711v4.336c2.25-.071 4.57-.235 6.68-.539l.14 1.617c-4.383.773-9.398.844-13.101.867l-.211-1.805c1.289-.011 2.754-.023 4.289-.07v-4.406h2.203zm10.289-6.305v6.68h2.883v1.875h-2.883v7.219h-2.273v-15.774h2.273zm.68 18.75v1.805h-14.274v-6.211h2.227v4.406h12.047zm20.522-18.75v21.047h-2.226v-21.047h2.226zm-6.421 1.899v7.664h-7.547v4.593c3.398-.011 6.375-.164 9.89-.75l.211 1.829c-3.726.632-6.89.773-10.593.773h-1.782v-8.227h7.547v-4.078h-7.57v-1.804h9.844z" fill="#32394F"/>
        <path d="M260.864 311.625v1.687h-3.047v3.633h2.953v1.711h-15.398v-1.711h2.976v-3.633h-3.07v-1.687h15.586zm1.805 8.578v1.758H243.52v-1.758h19.149zm-2.414 3.399v4.804H248.02v1.688h12.82v1.687h-15v-4.945h12.211v-1.57h-12.234v-1.664h14.438zm-9.704-6.657h5.039v-3.633h-5.039v3.633zm31.258-5.929v14.25h-2.11v-7.078h-2.578v5.273h-2.086v-12.07h2.086v4.968h2.578v-5.343h2.11zm-9.047 1.57v6.023h-5.766v2.789c2.602-.023 4.582-.14 6.891-.609l.234 1.758c-2.625.539-4.781.633-7.898.633h-1.383v-6.211h5.789v-2.578h-5.836v-1.805h7.969zm3.047 12.187c0 2.579 3.117 4.829 7.078 5.391l-.891 1.734c-3.223-.503-6-2.062-7.289-4.289-1.312 2.227-4.078 3.786-7.289 4.289l-.891-1.734c3.938-.562 7.055-2.812 7.055-5.391v-.492h2.227v.492zm27.624-3.328v1.782h-19.148v-1.782h8.437v-2.179h-6.586v-1.805h2.977v-4.008h-3.071v-1.805h15.586v1.805h-3.047v4.008h2.954v1.805h-6.586v2.179h8.484zm-2.344 3.61v6.679h-14.508v-6.679h14.508zm-12.304 1.734v3.141h10.148v-3.141h-10.148zm2.531-9.328h5.039v-4.008h-5.039v4.008z" fill="#656B7B"/>
    </g>
    <defs>
        <clipPath id="hxen4g3npa">
            <path fill="#fff" d="M0 0h546v556H0z"/>
        </clipPath>
    </defs>
</svg>
