<svg width="19" height="18" viewBox="0 0 19 18" fill="none" xmlns="http://www.w3.org/2000/svg">
<g id="uil:calendar" clip-path="url(#clip0_34_12136)">
<path id="Vector" d="M13.375 2V2.5H13.875H15.625C16.1886 2.5 16.7291 2.72388 17.1276 3.1224C17.5261 3.52091 17.75 4.06141 17.75 4.625V15.125C17.75 15.6886 17.5261 16.2291 17.1276 16.6276C16.7291 17.0261 16.1886 17.25 15.625 17.25H3.375C2.81141 17.25 2.27091 17.0261 1.8724 16.6276C1.47388 16.2291 1.25 15.6886 1.25 15.125V4.625C1.25 4.06141 1.47388 3.52091 1.8724 3.1224C2.27091 2.72388 2.81141 2.5 3.375 2.5H5.125H5.625V2V1.125C5.625 1.02554 5.66451 0.930161 5.73483 0.859835C5.80516 0.789509 5.90054 0.75 6 0.75C6.09946 0.75 6.19484 0.789509 6.26516 0.859835C6.33549 0.930161 6.375 1.02554 6.375 1.125V2V2.5H6.875H12.125H12.625V2V1.125C12.625 1.02554 12.6645 0.930161 12.7348 0.859836C12.8052 0.789508 12.9005 0.75 13 0.75C13.0995 0.75 13.1948 0.789509 13.2652 0.859835C13.3355 0.93016 13.375 1.02554 13.375 1.125V2ZM2.5 8.5H2V9V15.125C2 15.4897 2.14487 15.8394 2.40273 16.0973C2.66059 16.3551 3.01033 16.5 3.375 16.5H15.625C15.9897 16.5 16.3394 16.3551 16.5973 16.0973L16.2437 15.7437L16.5973 16.0973C16.8551 15.8394 17 15.4897 17 15.125V9V8.5H16.5H2.5ZM16.5 7.75H17V7.25V4.625C17 4.26033 16.8551 3.91059 16.5973 3.65273C16.3394 3.39487 15.9897 3.25 15.625 3.25H13.875H13.375V3.75V4.625C13.375 4.72446 13.3355 4.81984 13.2652 4.89016C13.1948 4.96049 13.0995 5 13 5C12.9005 5 12.8052 4.96049 12.7348 4.89016C12.6645 4.81984 12.625 4.72445 12.625 4.625V3.75V3.25H12.125H6.875H6.375V3.75V4.625C6.375 4.72445 6.33549 4.81984 6.26516 4.89016C6.19484 4.96049 6.09946 5 6 5C5.90054 5 5.80516 4.96049 5.73483 4.89016C5.66451 4.81984 5.625 4.72445 5.625 4.625V3.75V3.25H5.125H3.375C3.01033 3.25 2.66059 3.39487 2.40273 3.65273L2.75628 4.00628L2.40273 3.65273C2.14487 3.91059 2 4.26033 2 4.625V7.25V7.75H2.5H16.5Z" stroke="#333333"/>
</g>
<defs>
<clipPath id="clip0_34_12136">
<rect width="18" height="18" fill="white" transform="translate(0.5)"/>
</clipPath>
</defs>
</svg>
