<svg width="16" height="16" viewBox="0 0 16 16" fill="none" xmlns="http://www.w3.org/2000/svg">
    <path d="M6.925 2.063a2.001 2.001 0 0 1 2.15 0l4 2.55A2 2 0 0 1 14 6.3v6.079a2 2 0 0 1-1.796 1.989l-.204.01H9.25v-4a.25.25 0 0 0-.25-.25H7a.25.25 0 0 0-.25.25v4H4a2 2 0 0 1-2-2V6.3c0-.64.306-1.24.82-1.616l.105-.07 4-2.55zM8.269 3.33a.5.5 0 0 0-.538 0l-4 2.549A.5.5 0 0 0 3.5 6.3v6.079a.5.5 0 0 0 .5.5h1.25v-2.5c0-.967.784-1.75 1.75-1.75h2c.966 0 1.75.783 1.75 1.75v2.5H12a.5.5 0 0 0 .5-.5v-6.08c0-.17-.088-.33-.231-.421l-4-2.549z" fill="#8593A9"/>
</svg>
