<svg width="259" height="20" viewBox="0 0 259 20" fill="none" xmlns="http://www.w3.org/2000/svg">
    <g clip-path="url(#c9irfuvy9a)">
        <g clip-path="url(#j6na7zrt1b)">
            <path d="m0 8.986.107.18c3.458-1.92 12.514-5.334 19.018-3.967 1.92.403 2.927 1.637 2.918 2.786-.014 2.016-1.883 3.473-4.514 4.069 0 0 5.057 2.016 6.89 7.946h3.68c-.964-3.24-2.808-6.033-5.848-7.912 1.421-.458 3.97-2.026 3.97-4.407 0-2.07-2.307-3.79-6.518-4.04C12.774 3.229 3.425 6.85 0 8.986z" fill="#F5A500"/>
            <path d="m3.484 5.766.091.135C11.501 2.18 18.521 1.232 23.24 1.52c4.533.274 7.264 2.309 7.264 5.11 0 2.803-2.705 4.619-5.334 5.144 2.71 1.487 5.27 4.212 6.358 8.226h3.68c-.908-3.004-2.598-6.185-5.66-8.215 3.146-.865 4.847-3.153 4.847-5.664 0-3.092-2.561-5.677-8.055-6.07-5.607-.402-15.233 1.6-22.855 5.715z" fill="#9DC814"/>
            <path d="m19.003 20-6.118-6.21 5.733-5.89h-3.885L10.43 12.34V7.9H7.34V20h3.09v-4.765L14.98 20h4.023zM40.002 7.9h-3.268V20h3.268V7.9z" fill="#004EA2"/>
        </g>
        <path d="M53.303 8.654c0 1.187 1.04 2.403 3.193 2.827l-.82 1.421c-1.56-.33-2.659-1.091-3.267-2.094-.6 1.106-1.714 1.948-3.34 2.314l-.79-1.42c2.153-.499 3.163-1.759 3.163-3.048V8.61h-2.68V7.13h2.68V5.96h1.89v1.172h2.666v1.48h-2.695v.043zm6.328-2.636v6.928h-1.86v-2.329h-2.124v-1.48h2.123v-3.12h1.86zm0 7.412v3.574h-6.987v.82h7.382v1.436H50.77v-3.618h7.002v-.791h-7.017V13.43h8.877zm12.373-1.45v1.479h-3.868v2.842h5.2v1.523H61.135v-1.523h5.142v-2.842H62.57V6.955H71.9V8.45h-7.456v3.53h7.559zM88.31 6.018v13.33h-1.89V6.018h1.89zm-3.999 1.391c0 4.043-1.42 7.398-6.181 9.654l-.982-1.495c3.443-1.626 4.959-3.735 5.259-6.694h-4.541V7.409h6.445zM96.89 6.37c0 1.304 1.538 2.608 4.512 2.93l-.615 1.406c-2.322-.256-4.014-1.128-4.864-2.358-.871 1.23-2.556 2.102-4.848 2.358l-.63-1.406c2.988-.322 4.511-1.626 4.526-2.93v-.278h1.919v.278zm5.112 4.893v1.465h-5.156v.878h3.677v3.443h-7.427v.806h7.778v1.406h-9.609v-3.53h7.412v-.704H91.25v-1.42h3.721v-.88h-5.127v-1.464h12.158zm11.787-5.244v13.33h-1.89V6.018h1.89zm-3.999 1.391c0 4.043-1.421 7.398-6.182 9.654l-.981-1.495c3.442-1.626 4.958-3.735 5.259-6.694h-4.541V7.409h6.445zm16.591-.82v1.465h-3.676c.219 1.098 1.596 2.212 4.233 2.505l-.688 1.464c-2.498-.278-4.168-1.318-4.864-2.695-.703 1.37-2.358 2.417-4.848 2.695l-.674-1.464c2.637-.293 3.999-1.421 4.219-2.505h-3.648V6.589h9.946zm1.128 6.064v1.495h-5.024v2.3h-1.846v-2.3h-5.332v-1.495h12.202zm-1.347 4.966v1.494h-9.419v-3.852h1.86v2.358h7.559zm3.627-3.032c-.688 0-1.245-.557-1.23-1.23-.015-.674.542-1.216 1.23-1.216.645 0 1.216.542 1.216 1.215 0 .674-.571 1.23-1.216 1.23zm14.482 1.787v1.494h-12.202v-1.494h3.032V13.84h-2.021V12.33h1.787v-3.75h-1.846V7.087h10.225V8.58h-1.875v3.75h1.816v1.509h-2.007v2.534h3.091zm-7.529-4.043h2.783v-3.75h-2.783v3.75zm.234 4.043h2.329V13.84h-2.329v2.534zm18.892-9.785v1.465h-3.677c.22 1.098 1.596 2.212 4.233 2.505l-.688 1.464c-2.498-.278-4.168-1.318-4.864-2.695-.703 1.37-2.358 2.417-4.848 2.695l-.674-1.464c2.637-.293 3.999-1.421 4.219-2.505h-3.648V6.589h9.947zm1.128 6.064v1.495h-5.025v2.3h-1.846v-2.3h-5.332v-1.495h12.203zm-1.348 4.966v1.494h-9.419v-3.852h1.86v2.358h7.559zM172.102 6.12v13.125h-1.333v-6.811h-1.626v6.181h-1.304V6.472h1.304v4.834h1.626V6.12h1.333zm-5.566 1.67c-.015 3.457-1.157 6.548-4.907 8.672l-.806-.967c2.915-1.648 4.145-3.882 4.365-6.562h-3.809V7.79h5.157zm8.945-1.113v1.787h3.442V6.677h1.377v5.727h-6.182V6.677h1.363zm0 4.614h3.442V9.533h-3.442v1.758zm8.437-5.17v2.753h1.904v1.128h-1.904v2.871h-1.391V6.12h1.391zm0 7.323v3.31h-7.09V18h7.544v1.113h-8.906V15.73h7.075v-1.187h-7.104v-1.099h8.481zm6.938-6.548-3.413 12.7h-1.391l3.413-12.7h1.391zm7.773.22v.733c-.014.879-.014 2.182-.337 3.881l-1.377-.131a18.76 18.76 0 0 0 .352-3.34h-5.259V7.116h6.621zm-3.354 2.944v2.71c1.406-.043 2.856-.146 4.175-.336l.088 1.01c-2.74.484-5.875.528-8.189.542l-.132-1.128c.806-.007 1.721-.014 2.681-.043V10.06h1.377zm6.43-3.94v4.175h1.802v1.172h-1.802v4.511h-1.42V6.12h1.42zm.425 11.719v1.128h-8.921v-3.882h1.392v2.754h7.529zM214.957 6.12v13.154h-1.392V6.12h1.392zm-4.014 1.187v4.79h-4.716v2.87c2.124-.007 3.984-.102 6.181-.468l.132 1.143c-2.329.395-4.307.483-6.621.483h-1.113v-5.142h4.716V8.435h-4.731V7.307h6.152zm20.131-.791V7.57h-1.904v2.27h1.846v1.07h-9.624V9.84h1.86V7.57h-1.919V6.516h9.741zm1.128 5.361v1.099h-11.967v-1.099h11.967zm-1.508 2.124v3.003h-7.647v1.055h8.013v1.054h-9.375v-3.09h7.632v-.982h-7.647v-1.04h9.024zm-6.065-4.16h3.15V7.57h-3.15v2.27zm19.536-3.706v8.906h-1.319v-4.424h-1.611v3.296h-1.304V6.37h1.304v3.106h1.611v-3.34h1.319zm-5.654.981v3.765h-3.604v1.743c1.626-.015 2.864-.088 4.307-.38l.146 1.098c-1.64.337-2.988.395-4.936.395h-.865V9.855h3.619v-1.61h-3.648V7.115h4.981zm1.904 7.617c0 1.612 1.948 3.018 4.424 3.37l-.557 1.083c-2.014-.314-3.75-1.288-4.556-2.68-.82 1.392-2.548 2.366-4.555 2.68l-.557-1.084c2.461-.351 4.409-1.757 4.409-3.369v-.307h1.392v.307zm17.265-2.08v1.114h-11.968v-1.114h5.274v-1.362h-4.116v-1.128h1.86V7.658h-1.919V6.53h9.741v1.128h-1.904v2.505h1.846v1.128h-4.117v1.362h5.303zm-1.465 2.256v4.175h-9.067v-4.175h9.067zm-7.69 1.084v1.963h6.343v-1.963h-6.343zm1.582-5.83h3.149V7.658h-3.149v2.505z" fill="#32394F"/>
    </g>
    <defs>
        <clipPath id="c9irfuvy9a">
            <path fill="#fff" d="M0 0h259v20H0z"/>
        </clipPath>
        <clipPath id="j6na7zrt1b">
            <path fill="#fff" d="M0 0h40v20H0z"/>
        </clipPath>
    </defs>
</svg>
