<svg width="115" height="26" viewBox="0 0 115 26" fill="none" xmlns="http://www.w3.org/2000/svg">
    <g clip-path="url(#rkto0kgfua)">
        <path d="M20.162 14.795c-.164-.358-1.156-1.695-3.053-1.726-2.23.041-3.068 1.86-3.079 1.89l-2.6 6.99c-.216.569-.15 1.48.329 1.962.365.363.9.589 1.398.589.17 0 .339-.026.514-.082l4.95-1.946c.493-.19.755-.733.595-1.199-.077-.26-.35-.696-.873-.696-.113 0-.237.02-.36.066l-4.472 1.66c.036-.108.077-.23.108-.313l2.318-6.299s.365-.645 1.146-.655c.581 0 .936.271 1.09.425a.801.801 0 0 1 .129.23l3.207 8.322c.144.38.57.66.986.66h.047c.102-.02.637-.112.873-.475a.7.7 0 0 0 .062-.605l-3.325-8.798h.01zM41.378 23.593l-3.325-8.798c-.165-.358-1.157-1.695-3.053-1.726-1.886.036-2.878 1.403-3.079 1.89l-2.6 6.99c-.211.574-.144 1.48.334 1.962.365.363.9.589 1.398.589.174 0 .339-.026.514-.082l4.954-1.946c.489-.19.756-.733.591-1.199-.077-.26-.35-.696-.873-.696-.113 0-.237.02-.36.066l-4.472 1.66c.031-.103.077-.23.108-.313l2.323-6.299s.36-.645 1.141-.655c.55 0 .9.235 1.09.425a.855.855 0 0 1 .128.23l3.208 8.322c.149.38.57.66.992.66h.046c.103-.02.637-.112.868-.475a.683.683 0 0 0 .067-.605zM10.377 23.808l-5.49-4.183c.145-.113.289-.246.448-.395.75-.732 4.965-4.896 4.965-4.896a.14.14 0 0 0 .046-.061c.103-.174.118-.328.041-.466-.118-.21-.37-.21-.478-.21h-.16c-.035 0-.071 0-.148-.005h-.848c-.458 0-.663.194-.74.307L3.67 18.13c-.252.205-.792.318-1.475.318h-.062v-4.225c-.02-.348-.272-.59-.637-.59H.632c-.36 0-.617.236-.632.605v9.843c.02.343.278.573.632.573h.869c.365 0 .617-.235.632-.604l.015-3.662c.206 0 .473-.005.653-.015l5.392 3.959c.087.097.339.302.796.333h.786c.237-.02.571-.041.71-.297.051-.098.098-.256-.01-.472a.404.404 0 0 0-.088-.102l-.01.015zM26.825 13.653h-.863c-.36 0-.617.236-.638.604V24.1c.026.338.278.569.632.574h.88c.354 0 .606-.246.626-.61v-9.832c-.02-.348-.272-.584-.637-.584v.005z" fill="#A9992F"/>
        <path d="M88.207 14.524a1.928 1.928 0 0 0-.833-.61 3.394 3.394 0 0 0-1.156-.215c-.89 0-1.558.272-1.994.825-.211.26-.314.532-.314.814 0 .62.39 1.086 1.162 1.403.354.144.735.215 1.146.215.894 0 1.557-.271 1.989-.804.206-.25.313-.522.313-.814 0-.292-.108-.553-.313-.814zm-1.46 1.439c-.17.056-.344.092-.53.092-.41 0-.713-.123-.924-.358a.549.549 0 0 1-.139-.364c0-.297.175-.512.535-.65.174-.067.349-.103.534-.103.411 0 .72.128.925.379a.613.613 0 0 1 .139.374c-.005.281-.185.481-.535.62l-.005.01zM89.66 12.752c-.092-.093-.252-.108-.329-.118h-2.467v-.297h2.36v-.82h-4.74v-.23h4.698v-.82h-4.698v-.245h4.74v-.436a.466.466 0 0 0-.13-.266c-.128-.123-.38-.118-.38-.118H83.23v2.464c.042.317.252.47.633.47h1.716v.298h-2.934v.896h7.139v-.522c-.026-.154-.124-.251-.124-.251v-.005zM81.36 14.093a.194.194 0 0 0-.128-.056h-.37V9.766a.516.516 0 0 0-.123-.236c-.078-.082-.211-.107-.304-.117H75.08v.926h4.502v3.698h-.745v-1.72c-.016-.154-.124-.267-.124-.267-.092-.092-.256-.108-.339-.108h-.776v2.095h-.678v-1.736c-.02-.149-.124-.251-.124-.251-.097-.092-.257-.108-.339-.108h-.76v2.095h-1.178v.896h6.888v-.722c-.01-.072-.057-.118-.057-.118h.01zM73.078 14.14c-.128-.128-.38-.118-.38-.118h-2.313v-.732h2.354v-.891h-4.713v-.6h4.672v-.89h-4.672v-.585h4.713v-.517h-.005c-.015-.153-.123-.256-.123-.256-.093-.097-.257-.118-.334-.123h-5.53v3.395c.04.318.251.472.632.472h1.737v.732h-2.843v.912h6.929v-.548c-.026-.149-.129-.246-.129-.246l.005-.005zM65.082 13.273v-.701a.293.293 0 0 0-.072-.144c-.062-.056-.175-.066-.206-.066h-.406V9.786c-.02-.159-.128-.261-.128-.261-.129-.128-.38-.118-.38-.118h-5.28v.927h4.508v2.028h-5.18v.906h2.94v.436h-2.303v.911h4.595v2.074h1.274v-2.617c-.025-.148-.128-.245-.128-.245-.129-.129-.375-.118-.375-.118h-1.795v-.436H65.082zM79.489 18.456h-.365.01-3.685v.928h3.269v3.943h1.28v-4.512c-.026-.138-.124-.236-.124-.236-.123-.128-.38-.117-.38-.117l-.005-.006zM81.699 18.37h-.812v7.358h1.274v-6.995c-.025-.149-.123-.246-.123-.246-.098-.102-.262-.118-.34-.123v.005zM109.564 21.488c.365.154.75.236 1.177.236.904 0 1.588-.292 2.03-.886.216-.282.324-.579.324-.891 0-.313-.108-.61-.324-.891a1.905 1.905 0 0 0-.853-.661 3.025 3.025 0 0 0-1.177-.251c-.915.01-1.588.307-2.041.912-.21.286-.313.583-.313.89 0 .692.395 1.204 1.177 1.542zm.606-2.32a1.47 1.47 0 0 1 .571-.123c.437 0 .76.154.987.461a.777.777 0 0 1 .149.446c0 .333-.18.584-.55.753-.175.076-.36.117-.571.117-.442 0-.776-.143-.997-.435a.77.77 0 0 1-.149-.445c0-.359.185-.615.565-.779l-.005.005z" fill="#898989"/>
        <path d="M110.376 23.936h1.26v-1.111h2.102v.133h-1.434v.804h1.434v.25h1.259v-5.279c-.021-.149-.123-.246-.123-.246-.098-.102-.268-.118-.345-.123h-.791v3.544h-5.695v.912h2.339v1.11l-.006.006z" fill="#898989"/>
        <path d="M114.535 24.74h-4.774v-.835c-.016-.148-.119-.25-.119-.25-.097-.098-.267-.113-.339-.118h-.791v1.638c.041.318.252.477.632.477h5.859v-.538c-.02-.154-.128-.256-.128-.256-.093-.097-.262-.113-.34-.118zM106.508 18.897c-.025-.138-.118-.23-.118-.23-.087-.088-.236-.108-.324-.118h-1.871v-.21c-.015-.087-.072-.144-.072-.144-.046-.051-.133-.061-.185-.072h-1.017v.426h-2.323v.896h1.079c-.175.21-.262.42-.262.635-.005.517.349.906 1.059 1.157.334.118.704.18 1.094.18.843 0 1.47-.22 1.871-.661.19-.205.288-.43.293-.666a.877.877 0 0 0-.282-.645h1.063v-.548h-.005zm-2.441 1.572a1.795 1.795 0 0 1-.509.072c-.385 0-.663-.087-.833-.267a.375.375 0 0 1-.133-.276c0-.22.159-.38.473-.482.154-.046.323-.071.493-.071.386 0 .668.097.843.287.087.092.134.184.134.286-.011.205-.165.359-.468.456v-.005zM104.721 22.953a3.376 3.376 0 0 0-1.157-.215c-.894 0-1.552.271-1.989.824-.21.267-.313.533-.313.815 0 .624.385 1.09 1.156 1.403.35.143.735.215 1.146.215.889 0 1.558-.272 1.989-.804.206-.251.314-.528.314-.814 0-.287-.108-.553-.314-.815a1.987 1.987 0 0 0-.837-.61h.005zM104.099 25c-.17.057-.345.092-.535.092-.411 0-.719-.122-.925-.358a.58.58 0 0 1-.139-.364c0-.297.175-.512.535-.65.17-.067.349-.102.529-.102.417 0 .725.128.925.379a.611.611 0 0 1 .139.373c0 .282-.185.482-.529.625v.005zM106.689 21.627h-6.697v.926h7.144v-.568c-.025-.149-.123-.24-.123-.24-.087-.088-.236-.113-.324-.119zM98.631 18.728c-.025-.144-.123-.236-.123-.236-.093-.102-.267-.118-.34-.123h-.816v5.203h1.284v-4.85l-.005.006zM93.046 22.323l.802-1.378c.894.271 1.392.727 1.5 1.378h1.306c-.19-1.096-.936-1.885-2.251-2.361l.4-.584h1.748v-.553c-.02-.154-.118-.251-.118-.251-.098-.098-.262-.118-.345-.118h-4.183v.927h1.562l-1.768 2.94h1.347zM98.74 25.103c-.021-.153-.129-.26-.129-.26-.077-.083-.21-.113-.298-.119h-4.045v-1.331a.485.485 0 0 0-.128-.246c-.088-.092-.237-.113-.32-.118h-.832v2.166c.031.303.252.456.653.456h5.099v-.553.005zM86.492 20.085c1.269.195 2.132.594 2.59 1.198h1.357c-.643-1.034-1.665-1.695-3.058-1.982a2.972 2.972 0 0 0-.18-.04l.9-.845h-1.496l-2.894 2.867h1.5l1.275-1.198h.005zM90.666 22.374v-.533c-.015-.153-.128-.26-.128-.26-.087-.088-.237-.113-.319-.119h-6.692v.912h2.935v.256h-2.297v.835H88.8v.271h-4.636v1.496c.02.307.22.466.611.466h5.31v-.456c-.021-.159-.129-.261-.129-.261-.128-.128-.38-.118-.38-.118h-4.163v-.282h4.615v-1.567c-.02-.154-.123-.261-.123-.261-.088-.092-.237-.113-.319-.118h-1.85v-.256h2.924l.005-.005zM65.806 20.075c0-.149-.02-.241-.02-.241-.093-.24-.334-.272-.427-.272h-.473v-.793c-.01-.093-.025-.144-.025-.144a.411.411 0 0 0-.365-.266h-.89v4.517h-.693v-3.974a.613.613 0 0 0-.026-.19c-.082-.225-.303-.266-.4-.266h-4.138v.922h3.284v3.513h-1.115v-1.639c-.005-.118-.02-.195-.02-.195a.439.439 0 0 0-.356-.27h-.899v2.104h-1.306v.922h5.67v1.92h1.28V20.48h.92v-.405zM73.08 22.814h.036-5.268v.907h4.43v2.002h1.28v-2.51c-.005-.07-.02-.117-.02-.117-.114-.292-.453-.276-.453-.276l-.005-.006zM69.141 22.456c.915 0 1.604-.313 2.061-.937a1.49 1.49 0 0 0 .314-.902c0-.42-.175-.768-.535-1.06a1.59 1.59 0 0 1-.097-.071h.863v-.507a2.03 2.03 0 0 0-.02-.134.44.44 0 0 0-.38-.271h-1.553v-.18c0-.235-.257-.235-.257-.235H68.51v.415h-1.943v.912h.848c-.431.317-.642.706-.642 1.147 0 .307.108.599.324.89.216.288.498.518.863.682.365.169.76.256 1.182.256v-.005zm-.555-2.591c.185-.082.376-.123.57-.123.438 0 .767.148.993.455a.77.77 0 0 1 .154.451c0 .343-.2.604-.58.768-.17.077-.36.113-.561.113-.442 0-.766-.143-.987-.446a.7.7 0 0 1-.164-.44c0-.358.19-.62.575-.784v.005zM74.106 19.398h-.55v-.655c-.005-.072-.02-.118-.02-.118-.073-.2-.258-.256-.366-.266h-.889v4.133h1.28v-2.167h.92v-.558c0-.061-.015-.097-.015-.097-.072-.19-.247-.246-.355-.266l-.005-.006z" fill="#898989"/>
        <path d="M40.95 10.145c-.283 0-.565-.077-.827-.205-.437-.215-.756-.573-.88-.983a1.139 1.139 0 0 1 .088-.891c.221-.394.668-.625 1.203-.62.277 0 .565.077.822.205.427.215.745.569.874.968.098.307.077.62-.062.881-.216.41-.673.65-1.213.645h-.005zM40.53 7.75c-.422 0-.771.169-.93.46a.793.793 0 0 0-.057.65c.097.329.365.62.724.8.221.112.458.169.694.174.427.005.782-.174.946-.482a.844.844 0 0 0 .041-.645c-.103-.322-.37-.614-.725-.788a1.654 1.654 0 0 0-.693-.175v.006z" fill="#0092D0"/>
        <path d="M41.139 11.384a3.602 3.602 0 0 1-1.589-.394c-.837-.42-1.46-1.111-1.69-1.895-.175-.589-.114-1.188.169-1.685.421-.732 1.27-1.162 2.277-1.152a3.674 3.674 0 0 1 1.588.394c.812.41 1.424 1.08 1.67 1.839.185.573.15 1.157-.102 1.654-.396.778-1.285 1.255-2.324 1.24zM40.3 6.642c-.864-.01-1.588.348-1.938.958-.236.41-.283.886-.139 1.382.206.682.75 1.291 1.496 1.665.452.225.946.348 1.424.353.889.01 1.644-.384 1.978-1.03.211-.409.237-.875.078-1.356-.216-.666-.756-1.255-1.48-1.619a3.267 3.267 0 0 0-1.424-.353h.005z" fill="#0092D0"/>
        <path d="M41.33 12.71a5.506 5.506 0 0 1-2.385-.593c-1.275-.64-2.2-1.685-2.544-2.868-.263-.886-.16-1.782.277-2.525.632-1.07 1.902-1.7 3.382-1.685a5.5 5.5 0 0 1 2.385.59c2.22 1.11 3.263 3.39 2.374 5.192-.586 1.183-1.922 1.905-3.49 1.89zm-1.27-7.205c-1.321-.015-2.441.533-2.986 1.46-.38.64-.463 1.383-.237 2.156.309 1.065 1.152 2.007 2.313 2.586.694.348 1.45.538 2.19.543 1.387.015 2.564-.61 3.073-1.634.76-1.541-.21-3.595-2.169-4.573a4.943 4.943 0 0 0-2.179-.538h-.005zM44.769 4.456c-.36-.005-.828-.16-1.27-.425-.576-.338-.987-.779-1.08-1.148a.485.485 0 0 1 .052-.384c.072-.107.226-.24.566-.235.364 0 .827.159 1.274.42.689.41 1.285 1.08 1.038 1.52-.066.119-.22.257-.575.252h-.005zm-1.737-1.89c-.155 0-.263.036-.304.097-.02.036-.026.082-.01.149.056.235.365.62.935.957.401.236.818.38 1.12.385.155 0 .268-.036.31-.098.097-.169-.217-.68-.926-1.1-.396-.236-.817-.38-1.12-.38l-.005-.01z" fill="#0092D0"/>
        <path d="M45.642 5.505c-.684-.005-1.624-.322-2.519-.845-1.14-.67-1.978-1.53-2.122-2.197-.052-.235-.02-.44.092-.604.118-.169.37-.364.925-.358.684.005 1.63.322 2.519.845 1.31.768 2.477 1.992 2.066 2.75-.108.194-.36.425-.961.414v-.005zM42.013 1.88c-.303 0-.519.066-.606.194-.052.072-.067.18-.036.302.102.466.745 1.25 1.948 1.951.837.492 1.711.79 2.328.794.324 0 .545-.071.622-.215.216-.394-.52-1.413-1.922-2.233-.838-.491-1.712-.788-2.334-.793z" fill="#0092D0"/>
        <path d="M46.613 6.54c-1.023-.01-2.462-.502-3.844-1.306-1.774-1.03-3.048-2.325-3.244-3.293-.061-.312-.01-.594.15-.81.226-.306.662-.465 1.254-.46 1.027.01 2.466.497 3.85 1.3 1.947 1.133 3.72 2.915 3.17 3.985-.139.271-.483.589-1.336.579v.005zm-5.69-5.408c-.437-.005-.75.092-.884.276-.082.113-.102.257-.067.44.17.82 1.414 2.05 3.028 2.986 1.32.769 2.672 1.23 3.623 1.24.483.005.807-.113.92-.333.309-.594-.848-2.125-2.996-3.375-1.295-.753-2.683-1.229-3.624-1.24v.006zM34.014 1.94c-.232 0-.54-.03-.57-.26-.052-.4 1.058-.661 1.402-.733.365-.077.72-.118.992-.113.334 0 .509.067.56.216a.226.226 0 0 1-.02.189c-.175.317-1.136.538-1.331.579-.386.082-.75.123-1.028.123h-.005zm-.19-.322c.046.005.107.015.195.015.257 0 .606-.04.96-.112.556-.118.906-.267 1.054-.364a1.744 1.744 0 0 0-.2-.01c-.247 0-.58.036-.925.107-.565.118-.93.272-1.084.37v-.006z" fill="#0092D0"/>
        <path d="M33.145 2.504c-.263 0-1.064-.01-1.075-.476-.02-.768 2.622-1.316 2.735-1.342.678-.138 1.336-.215 1.85-.205.617.005.956.118 1.054.349.03.066.051.179-.016.307-.241.471-1.51.896-2.534 1.121-.74.16-1.454.251-2.01.241l-.004.005zm3.5-1.639c-.489-.005-1.116.067-1.768.2-1.511.307-2.385.789-2.431.958.02 0 .2.092.699.097.529.005 1.207-.077 1.927-.235 1.5-.328 2.23-.774 2.277-.927-.02 0-.2-.087-.704-.093z" fill="#0092D0"/>
        <path d="M32.43 3.318c-.858-.01-1.424-.148-1.68-.42a.563.563 0 0 1-.16-.404C30.636 1.382 34.05.65 34.738.512 35.797.328 36.788.23 37.534.24c.884.01 1.367.164 1.521.482a.555.555 0 0 1-.01.497c-.298.63-1.763 1.32-3.726 1.756-1.039.23-2.067.354-2.889.343zM37.53.707c-.71-.01-1.696.087-2.709.266-2.441.481-3.757 1.203-3.767 1.541 0 .01 0 .031.03.067.119.133.545.271 1.352.281.792.01 1.784-.107 2.786-.332 1.953-.436 3.217-1.101 3.413-1.511.03-.062.015-.082.01-.092 0 0-.113-.21-1.115-.22zM27.94 4.62c-.329 0-.442-.16-.478-.251-.15-.374.406-.886 1.033-1.199.386-.194.771-.302 1.064-.302.298 0 .421.128.473.236.164.374-.39.896-1.028 1.213-.386.195-.771.303-1.059.297l-.005.006zm1.614-1.44c-.237 0-.586.098-.92.267-.663.333-.92.722-.89.814.01.02.067.051.196.051.236 0 .58-.097.92-.266.673-.338.925-.722.89-.814-.011-.02-.073-.051-.196-.051z" fill="#0092D0"/>
        <path d="M26.922 5.265c-.427 0-.576-.184-.622-.338-.18-.584.956-1.475 2.082-2.054.837-.43 1.65-.68 2.169-.676.39 0 .54.16.601.282.272.579-.879 1.5-2.061 2.11-.843.43-1.65.681-2.169.676zm3.629-2.684c-.458-.005-1.218.241-1.994.635-1.332.682-1.948 1.414-1.892 1.598.005.026.087.067.257.067.452 0 1.218-.24 1.994-.635 1.403-.722 1.958-1.45 1.886-1.598-.01-.015-.072-.061-.256-.067h.005z" fill="#0092D0"/>
        <path d="M26.233 6.263c-.725-.01-.966-.307-1.044-.558-.267-.901 1.342-2.269 3.074-3.155 1.192-.609 2.385-.962 3.192-.957.637.01.889.246.992.445.092.174.102.384.025.615-.246.778-1.475 1.838-3.053 2.648-1.192.609-2.384.967-3.186.957v.005zm5.216-4.204c-.724-.005-1.865.338-2.975.906-1.948.994-2.971 2.192-2.848 2.607.062.205.447.225.612.23.73.006 1.845-.332 2.976-.906 1.696-.87 2.652-1.839 2.827-2.376.036-.113.036-.2 0-.261-.062-.123-.278-.195-.597-.2h.006zM51.292 10.913c-.4-.005-.843-.584-1.09-1.116-.236-.513-.318-1.014-.21-1.311a.42.42 0 0 1 .216-.246.394.394 0 0 1 .154-.031c.386 0 .817.538 1.064 1.06.257.538.35 1.075.231 1.373a.381.381 0 0 1-.23.24.441.441 0 0 1-.14.026l.005.005zm-.925-2.397c-.056.02-.072.051-.082.077-.062.17-.026.579.2 1.076.299.65.715.978.849.932.02-.01.035-.031.051-.067.072-.174.03-.604-.221-1.127-.288-.604-.642-.886-.791-.886l-.006-.005z" fill="#0092D0"/>
        <path d="M51.8 12.245c-.69-.005-1.65-1.352-2.19-2.648-.406-.998-.53-1.838-.314-2.248a.46.46 0 0 1 .33-.261c.59-.128 1.444.917 1.983 1.946.504.963.93 2.279.668 2.883a.495.495 0 0 1-.334.307.465.465 0 0 1-.144.02zm-2.062-4.783c-.04 0-.066.01-.097.066-.124.236-.072.937.329 1.92.565 1.373 1.434 2.408 1.84 2.413h.036c.015-.005.056-.016.087-.093.149-.348-.057-1.398-.658-2.55-.622-1.188-1.285-1.751-1.537-1.751v-.005z" fill="#0092D0"/>
        <path d="M52.11 13.678c-1.023-.01-2.432-1.981-3.244-3.83-.683-1.567-.93-2.965-.642-3.662.108-.271.288-.384.41-.43.772-.297 2.108.999 3.162 3.057.94 1.839 1.341 3.606.992 4.394a.75.75 0 0 1-.478.446.901.901 0 0 1-.206.025h.005zm-3.223-7.502c-.031 0-.062 0-.088.015-.061.02-.113.082-.154.18-.195.466-.072 1.664.643 3.298.925 2.12 2.21 3.549 2.826 3.554.026 0 .057 0 .078-.01.05-.016.123-.047.18-.185.236-.543-.026-2.13-.982-3.994-.91-1.783-1.99-2.848-2.503-2.853v-.005zM52.33 17.422c-.432 0-.802-.532-.885-1.244a2.1 2.1 0 0 1 .108-.984c.129-.307.324-.491.566-.522.467-.051.889.528.956 1.306.066.763-.221 1.383-.674 1.444h-.077.005zm-.145-2.453c-.149.016-.267.138-.349.338-.093.225-.123.528-.087.83.072.625.39 1.003.616.973.237-.036.463-.502.406-1.111-.051-.61-.344-1.03-.59-1.03h.005z" fill="#0092D0"/>
        <path d="M52.362 18.58c-.709-.01-1.367-.989-1.557-2.335-.144-1.014.02-1.998.422-2.505.18-.225.395-.353.632-.373.77-.072 1.51 1.06 1.66 2.56.134 1.403-.308 2.54-1.043 2.643-.036.005-.072.01-.114.01zm-.431-4.83h-.041a.53.53 0 0 0-.365.231c-.334.42-.473 1.311-.345 2.212.185 1.286.787 2.07 1.244 2.003.442-.062.833-.968.71-2.223-.129-1.321-.725-2.212-1.203-2.217v-.005z" fill="#0092D0"/>
        <path d="M52.274 19.778c-1.023-.01-1.98-1.444-2.282-3.41-.237-1.573.005-3.094.622-3.867.262-.328.58-.517.93-.543h.092c1.126.01 2.154 1.741 2.339 3.938.17 2.043-.483 3.708-1.521 3.872-.057.01-.119.015-.185.015l.005-.005zm-.638-7.36h-.056c-.221.016-.422.14-.607.37-.534.67-.745 2.084-.529 3.513.303 1.977 1.239 3.124 1.943 3.011.673-.108 1.3-1.429 1.136-3.38-.16-1.895-1.023-3.508-1.887-3.513zM47.237 9.74c-.282 0-.606-.123-.91-.343-.678-.491-1.038-1.295-.801-1.792.231-.482.987-.482 1.624.01.617.476.95 1.204.77 1.69-.102.282-.354.44-.683.435zm-1.053-2.202c-.129 0-.304.031-.38.2-.17.353.159 1.014.703 1.408.252.185.51.287.735.287.14 0 .324-.036.396-.235.129-.354-.17-.958-.668-1.342-.262-.205-.545-.323-.781-.323l-.005.005z" fill="#0092D0"/>
        <path d="M47.65 10.877c-.52-.005-1.116-.225-1.686-.624-1.362-.958-2.087-2.566-1.578-3.508.22-.41.637-.635 1.177-.625.59.005 1.28.287 1.896.778 1.126.891 1.753 2.238 1.465 3.14-.17.532-.648.85-1.28.845l.005-.005zm-2.087-4.373c-.278 0-.648.067-.843.425-.411.763.272 2.171 1.46 3.006.503.354 1.027.553 1.475.558.467.005.791-.2.91-.573.236-.743-.35-1.936-1.337-2.72-.55-.435-1.156-.69-1.665-.696z" fill="#0092D0"/>
        <path d="M48.008 12.091c-.76-.01-1.609-.312-2.446-.886-2.164-1.465-3.3-3.99-2.426-5.408.339-.553.94-.85 1.701-.84.92.01 1.989.456 2.94 1.23 1.598 1.295 2.523 3.262 2.158 4.583-.23.84-.95 1.336-1.927 1.321zm-3.176-6.678c-.422 0-.987.102-1.306.625-.735 1.193.36 3.477 2.293 4.783.755.512 1.536.799 2.2.804.765.01 1.305-.353 1.48-.988.313-1.132-.57-2.93-2.01-4.097-.869-.707-1.84-1.117-2.657-1.127zM48.686 15.737c-.282 0-.586-.164-.863-.456-.54-.568-.782-1.449-.535-1.966a.642.642 0 0 1 .596-.384c.288 0 .602.169.88.466.508.543.75 1.372.55 1.89-.109.286-.335.445-.628.445v.005zm-.802-2.494c-.144 0-.251.067-.318.21-.19.4.03 1.142.483 1.618.39.41.843.482.982.108.159-.41-.062-1.111-.489-1.567-.216-.23-.457-.369-.658-.369z" fill="#0092D0"/>
        <path d="M49.027 17.064c-.519-.006-1.095-.308-1.619-.85-1.09-1.132-1.552-2.853-1.028-3.841.221-.42.602-.646 1.064-.64.535 0 1.141.332 1.67.896.941 1.014 1.414 2.58 1.075 3.559-.196.563-.617.88-1.162.876zm-1.588-4.947a.775.775 0 0 0-.72.435c-.436.82.016 2.407.967 3.39.442.461.935.727 1.346.732.38 0 .663-.215.797-.614.298-.86-.144-2.253-.992-3.17-.452-.487-.961-.768-1.398-.773z" fill="#0092D0"/>
        <path d="M49.348 18.503c-.766-.01-1.62-.456-2.395-1.26-1.686-1.731-2.38-4.425-1.522-5.88.334-.563.869-.865 1.517-.86.812.01 1.726.502 2.518 1.363 1.388 1.505 2.092 3.759 1.634 5.249-.267.89-.91 1.398-1.747 1.388h-.005zm-2.41-7.539a1.21 1.21 0 0 0-1.116.635c-.75 1.265-.067 3.754 1.454 5.321.69.712 1.43 1.111 2.072 1.117.632.005 1.1-.37 1.31-1.066.401-1.32-.272-3.43-1.536-4.798-.705-.763-1.501-1.204-2.19-1.214l.005.005zM37.985 4.737a1.99 1.99 0 0 1-.678-.118c-.417-.148-.7-.41-.782-.727a.738.738 0 0 1 .196-.691c.267-.292.735-.461 1.259-.456.21 0 .416.036.612.097.416.133.714.384.822.686.072.22.041.45-.103.65-.241.349-.75.564-1.331.559h.005zm-.01-1.685c-.432 0-.828.133-1.033.358-.118.129-.165.272-.123.41.046.21.267.4.58.512.18.067.38.103.581.103.473.005.894-.159 1.074-.425a.403.403 0 0 0 .067-.374c-.072-.21-.303-.395-.622-.497a1.754 1.754 0 0 0-.524-.082v-.005z" fill="#0092D0"/>
        <path d="M37.977 5.772a4.134 4.134 0 0 1-1.382-.251c-.787-.297-1.31-.804-1.434-1.398-.098-.466.061-.937.457-1.322.52-.501 1.398-.804 2.349-.788.396 0 .781.061 1.136.169.786.24 1.367.701 1.583 1.265a1.3 1.3 0 0 1-.098 1.157c-.426.722-1.45 1.183-2.61 1.168zm-.015-3.375c-.838-.01-1.635.25-2.077.681-.292.287-.421.63-.349.968.098.456.53.865 1.192 1.116.391.144.818.226 1.25.23 1.017.011 1.932-.378 2.281-.983a.91.91 0 0 0 .072-.819c-.175-.445-.673-.835-1.341-1.034a3.748 3.748 0 0 0-1.028-.154v-.005z" fill="#0092D0"/>
        <path d="M37.955 7.01a6.138 6.138 0 0 1-2.2-.43c-1.167-.47-1.922-1.244-2.071-2.13-.123-.737.17-1.464.832-2.043.792-.691 2.077-1.101 3.434-1.086.57.005 1.12.087 1.629.236 1.151.333 2.061 1.019 2.42 1.833a1.957 1.957 0 0 1-.02 1.67c-.565 1.188-2.184 1.971-4.03 1.95h.006zm-.01-5.228c-1.244-.015-2.416.348-3.13.968-.54.471-.782 1.045-.684 1.618.123.722.776 1.373 1.789 1.782a5.81 5.81 0 0 0 2.04.4c1.67.02 3.12-.66 3.613-1.69.2-.425.206-.855.016-1.28-.309-.692-1.105-1.286-2.128-1.583a5.58 5.58 0 0 0-1.511-.215h-.005zM31.186 7.02c-.067 0-.128-.004-.195-.014-.365-.047-.637-.22-.766-.492-.129-.261-.093-.579.087-.886.345-.579 1.152-.983 1.85-.917.376.036.674.21.813.477.133.25.118.558-.047.865-.303.558-1.053.973-1.742.968zm.843-2.007c-.565-.005-1.182.328-1.45.774-.128.215-.159.425-.076.589.082.174.272.286.534.322.612.082 1.352-.297 1.624-.799.113-.21.129-.414.047-.568-.093-.174-.299-.287-.571-.312-.036 0-.072-.006-.108-.006z" fill="#0092D0"/>
        <path d="M30.82 8.112c-.144 0-.288-.016-.427-.036-.673-.102-1.166-.435-1.392-.932-.227-.497-.155-1.086.2-1.66.668-1.075 2.18-1.828 3.49-1.725.725.056 1.29.374 1.562.87.252.456.227 1.02-.066 1.583-.576 1.1-2.026 1.915-3.372 1.905l.005-.005zm1.66-3.98c-1.125-.01-2.4.656-2.96 1.558-.283.46-.35.921-.175 1.295.17.374.56.625 1.105.712.118.02.247.03.375.03 1.193.01 2.524-.732 3.027-1.694.232-.446.257-.881.072-1.22-.21-.378-.668-.624-1.259-.67-.062-.005-.123-.005-.18-.01h-.005z" fill="#0092D0"/>
        <path d="M30.471 9.31c-.252 0-.498-.026-.735-.067-.982-.174-1.696-.676-2.01-1.403-.318-.737-.19-1.649.355-2.499 1.002-1.562 3.212-2.668 5.14-2.545 1.1.067 1.973.527 2.395 1.265.38.66.365 1.485-.046 2.32-.838 1.695-3.033 2.955-5.099 2.929zm2.513-6.063c-1.7-.02-3.644.988-4.518 2.345-.457.717-.575 1.47-.318 2.064.257.584.848.988 1.67 1.132.211.04.432.056.663.061 1.871.02 3.932-1.152 4.682-2.673.34-.686.36-1.357.057-1.88-.344-.599-1.084-.978-2.025-1.04-.072 0-.139-.004-.21-.004v-.005z" fill="#0092D0"/>
        <path d="M53.663 16.106c-.73-6.345-4.307-11.348-9.436-13.75-9.354-4.379-17.485 1.7-17.573 1.751-.848.487-1.3 1.624-1.429 1.455-.128-.17.077-1.199 1.136-2.075.082-.066 8.42-6.4 18.19-1.828 5.376 2.52 8.963 7.79 9.616 14.099.18 1.777-.283 2.94-1.126 3.672-.658.568.905-.938.627-3.324h-.005z" fill="#0092D0"/>
    </g>
    <defs>
        <clipPath id="rkto0kgfua">
            <path fill="#fff" d="M0 0h115v26H0z"/>
        </clipPath>
    </defs>
</svg>
