<svg width="88" height="26" viewBox="0 0 88 26" fill="none" xmlns="http://www.w3.org/2000/svg">
    <g clip-path="url(#bovzw65qia)">
        <path d="M20.1 12.408c-2.26-1.537-5.159-.91-6.679 1.4a4.724 4.724 0 0 1-3.929 2.167c-2.418 0-4.074-1.698-4.565-3.457l-.013-.05-.016-.06c-.191-.734-.239-1.086-.239-1.864 0-4.205 4.318-8.887 10.542-8.887S25.218 6.5 26.158 9.194a9.432 9.432 0 0 1-.047-.145C24.302 3.785 19.3 0 13.416 0 6.01 0 0 5.998 0 13.399c0 6.614 4.777 12.276 11.403 12.276 5.284 0 8.836-2.96 10.466-7.039.892-2.23.26-4.852-1.77-6.228z" fill="#003763"/>
        <path d="M26.24 9.456c-.782-2.627-4.457-7.797-11.038-7.797-6.224 0-10.542 4.682-10.542 8.887 0 .779.047 1.13.239 1.864a3.89 3.89 0 0 1-.123-.957c0-4.378 4.391-7.413 8.904-7.413 6.11 0 11.061 4.946 11.061 11.046 0 4.785-2.756 8.921-6.759 10.911 5.16-1.864 8.849-6.8 8.849-12.599 0-1.37-.184-2.582-.59-3.942z" fill="#E4022D"/>
        <path d="M42.482 15.05v3.733h-1.334v-2.569h-7.055V15.05h3.593v-1.573h-4.268v-1.164h9.857v1.164h-4.266v1.573h3.473zm0-6.781v3.192h-1.334V9.446h-6.935V8.269h8.269zM53.722 14.859h-3.486v1.945H54.5v1.164h-9.856v-1.164H48.9v-1.945h-3.463V8.593h8.259v1.164h-6.949v1.392h6.949v1.14h-6.949v1.406h6.972v1.164h.003zM58.218 16.804V13.48h1.262v3.324h1.79V13.48h1.274v3.324h3.184v1.164H55.87v-1.164h2.347zm5.384-1.885V9.78h-6.935V8.593h8.268v6.326h-1.333zM76.833 14.175h-9.856V13.08h4.268v-.697h-3.473V8.171h8.258v1.094h-6.959v.53h6.96v.995h-6.96v.54h6.983v1.057h-3.497v.697h4.279v1.093l-.003-.002zm-2.294 2.629c0 .336-.07.653-.21.949a2.53 2.53 0 0 1-.559.768 2.886 2.886 0 0 1-.83.535c-.312.133-.648.2-1.01.2s-.698-.067-1.016-.2a2.709 2.709 0 0 1-.835-.535 2.53 2.53 0 0 1-.559-.768 2.163 2.163 0 0 1-.21-.949c0-.338.071-.65.21-.941.14-.294.326-.545.56-.763.24-.223.519-.401.834-.535.318-.13.654-.199 1.016-.199s.695.066 1.01.2a2.8 2.8 0 0 1 .83.534c.231.218.42.47.56.763.138.294.21.605.21.941zm-1.286-.013c0-.36-.129-.671-.386-.93-.257-.26-.57-.391-.937-.391-.368 0-.683.13-.943.39a1.26 1.26 0 0 0-.39.93c0 .363.13.67.39.926.26.257.575.383.943.383.367 0 .68-.128.937-.383.257-.257.386-.563.386-.925zM78.14 14.814h9.857v1.177h-4.265v2.76h-1.334v-2.76h-4.255v-1.177h-.002zm2.103-5.232h5.639V8.227h1.323v5.148h-8.272V8.227h1.31v1.355zm5.639 1.15h-5.639v1.477h5.639v-1.476z" fill="#575756"/>
    </g>
    <defs>
        <clipPath id="bovzw65qia">
            <path fill="#fff" d="M0 0h88v26H0z"/>
        </clipPath>
    </defs>
</svg>
